<svg id="Layer_3" enable-background="new 0 0 64 64" height="512" viewBox="0 0 64 64" width="512" xmlns="http://www.w3.org/2000/svg"><path d="m30 2h-24c-2.209 0-4 1.791-4 4v4h32v-4c0-2.209-1.791-4-4-4z" fill="#f4b2b0"/><path d="m2 58c0 2.209 1.791 4 4 4h24c2.209 0 4-1.791 4-4v-4h-32z" fill="#f4b2b0"/><g fill="#b3404a"><path d="m15 5h6v2h-6z"/><path d="m16 57h4v2h-4z"/><path d="m38.381 21.805c.383-.504.619-1.125.619-1.805 0-1.654-1.346-3-3-3s-3 1.346-3 3c0 .68.236 1.301.619 1.805-.977.73-1.619 1.884-1.619 3.195v3c0 .552.447 1 1 1h6c.553 0 1-.448 1-1v-3c0-1.311-.642-2.465-1.619-3.195zm-3.381-1.805c0-.551.448-1 1-1s1 .449 1 1-.448 1-1 1-1-.449-1-1zm3 7h-4v-2c0-1.103.897-2 2-2s2 .897 2 2z"/><path d="m55.381 39.805c.383-.504.619-1.125.619-1.805 0-1.654-1.346-3-3-3s-3 1.346-3 3c0 .68.236 1.301.619 1.805-.977.729-1.619 1.884-1.619 3.195v3c0 .553.447 1 1 1h6c.553 0 1-.447 1-1v-3c0-1.311-.642-2.466-1.619-3.195zm-3.381-1.805c0-.552.448-1 1-1s1 .448 1 1-.448 1-1 1-1-.448-1-1zm3 7h-4v-2c0-1.103.897-2 2-2s2 .897 2 2z"/><path d="m53 31c-2.397 0-4.599.85-6.324 2.262l-3.411-3.411c1.69-1.792 2.735-4.199 2.735-6.851 0-5.514-4.486-10-10-10-.338 0-.671.018-1 .051v-7.051c0-2.757-2.243-5-5-5h-24c-2.757 0-5 2.243-5 5v52c0 2.757 2.243 5 5 5h24c2.757 0 5-2.243 5-5v-25.051c.329.033.662.051 1 .051 2.142 0 4.123-.683 5.752-1.834l3.51 3.51c-1.412 1.725-2.262 3.927-2.262 6.324 0 5.514 4.486 10 10 10s10-4.486 10-10-4.486-10-10-10zm-47-28h24c1.654 0 3 1.346 3 3v3h-30v-3c0-1.654 1.346-3 3-3zm24 58h-24c-1.654 0-3-1.346-3-3v-3h30v3c0 1.654-1.346 3-3 3zm3-8h-30v-42h30v2.461c-4.052 1.277-7 5.07-7 9.539 0 2.652 1.045 5.059 2.735 6.851l-3.411 3.411c-1.725-1.412-3.927-2.262-6.324-2.262-5.514 0-10 4.486-10 10s4.486 10 10 10 10-4.486 10-10c0-2.397-.85-4.599-2.262-6.324l3.51-3.51c.834.589 1.758 1.059 2.752 1.372zm-6-12c0 4.411-3.589 8-8 8s-8-3.589-8-8 3.589-8 8-8 8 3.589 8 8zm1-18c0-4.411 3.589-8 8-8s8 3.589 8 8-3.589 8-8 8-8-3.589-8-8zm25 26c-4.411 0-8-3.589-8-8s3.589-8 8-8 8 3.589 8 8-3.589 8-8 8z"/><path d="m16 38c0 .68.236 1.301.619 1.805-.977.729-1.619 1.884-1.619 3.195v3c0 .553.447 1 1 1h6c.553 0 1-.447 1-1v-3c0-1.311-.642-2.466-1.619-3.195.383-.504.619-1.125.619-1.805 0-1.654-1.346-3-3-3s-3 1.346-3 3zm5 7h-4v-2c0-1.103.897-2 2-2s2 .897 2 2zm-1-7c0 .552-.448 1-1 1s-1-.448-1-1 .448-1 1-1 1 .448 1 1z"/></g></svg>