<?xml version="1.0"?>
<svg xmlns="http://www.w3.org/2000/svg" height="512px" viewBox="1 -4 511.999 511" width="512px" class=""><g><path d="m333.761719 249.898438-80.328125-15.621094v-52.265625h-74.363282v52.265625l-80.328124 15.621094c-30.332032 8.929687-51.160157 24.773437-51.160157 56.394531v113.082031c0 11.363281 9.214844 20.578125 20.582031 20.578125h296.175782c11.367187 0 20.582031-9.210937 20.582031-20.578125v-113.082031c0-31.621094-20.828125-47.464844-51.160156-56.394531zm0 0" fill="#fff3de" data-original="#FFF3DE" class=""/><path d="m333.761719 249.898438-80.328125-15.621094c0 20.53125-16.648438 37.179687-37.179688 37.179687-20.535156 0-37.183594-16.644531-37.183594-37.179687l-80.328124 15.621094c-30.332032 8.929687-51.160157 24.773437-51.160157 56.394531v22.324219h55.558594v111.335937h226.21875v-111.335937h55.558594v-22.324219c.003906-31.621094-20.824219-47.464844-51.15625-56.394531zm0 0" fill="#ff9838" data-original="#FF9838" class="" style="fill:#69E781" data-old_color="#ff9838"/><path d="m253.433594 234.277344v-52.265625h-30.332032v88.804687c17.261719-3.214844 30.332032-18.347656 30.332032-36.539062zm0 0" fill="#ffe5c2" data-original="#FFE5C2" class=""/><path d="m333.761719 249.898438-1.128907-.222657c13.496094 9.601563 21.621094 23.199219 21.621094 42.949219v35.992188h30.667969v-22.324219c0-31.621094-20.828125-47.464844-51.160156-56.394531zm0 0" fill="#ff8709" data-original="#FF8709" class="" style="fill:#00AF80" data-old_color="#ff8709"/><path d="m103.144531 249.039062v190.914063h226.21875v-190.914063l-36.390625-7.074218v48.53125c0 8.25-6.691406 14.941406-14.941406 14.941406h-123.554688c-8.253906 0-14.941406-6.691406-14.941406-14.941406v-48.53125zm0 0" fill="#2dd2e3" data-original="#2DD2E3"/><path d="m290.195312 114.371094h-4.71875v-18.789063c0-18.703125-7.679687-36.832031-21.855468-49.035156-11.113282-9.570313-26.734375-17.921875-47.367188-18.152344-20.636718.230469-36.257812 8.582031-47.371094 18.152344-14.175781 12.203125-21.855468 30.328125-21.855468 49.035156v18.789063h-4.71875c-6.917969 0-12.527344 5.609375-12.527344 12.53125v13.882812c0 6.917969 5.609375 12.527344 12.527344 12.527344h4.738281c.390625 18.183594 8.03125 35.683594 21.835937 47.570312 11.113282 9.570313 26.734376 17.921876 47.367188 18.152344 20.636719-.230468 36.257812-8.582031 47.371094-18.152344 13.804687-11.886718 21.445312-29.386718 21.832031-47.570312h4.738281c6.921875 0 12.53125-5.609375 12.53125-12.527344v-13.882812c0-6.921875-5.609375-12.53125-12.527344-12.53125zm0 0" fill="#fff3de" data-original="#FFF3DE" class=""/><path d="m290.195312 114.371094h-4.71875v-18.789063c0-18.703125-7.679687-36.832031-21.855468-49.035156-2.628906-2.261719-5.515625-4.453125-8.652344-6.488281l-.011719 121.917968c-.390625 18.183594-8.03125 35.6875-21.835937 47.570313-3.921875 3.378906-8.417969 6.59375-13.484375 9.363281 18.964843-1.046875 33.488281-8.992187 43.984375-18.027344 13.804687-11.886718 21.445312-29.386718 21.835937-47.570312h4.738281c6.917969 0 12.527344-5.609375 12.527344-12.53125v-13.878906c0-6.921875-5.609375-12.53125-12.527344-12.53125zm0 0" fill="#ffe5c2" data-original="#FFE5C2" class=""/><path d="m219.839844 7.996094h-7.175782c-43.601562 0-78.945312 35.347656-78.945312 78.945312v22.730469h165.066406v-22.730469c0-43.597656-35.34375-78.945312-78.945312-78.945312zm0 0" fill="#ff9838" data-original="#FF9838" class="" style="fill:#69E781" data-old_color="#ff9838"/><path d="m219.839844 7.996094h-7.175782c-3.878906 0-7.683593.292968-11.410156.832031 38.1875 5.535156 67.53125 38.390625 67.53125 78.113281v22.730469h30v-22.730469c0-43.597656-35.34375-78.945312-78.945312-78.945312zm0 0" fill="#ff8709" data-original="#FF8709" class="" style="fill:#00AF80" data-old_color="#ff8709"/><path d="m302.171875 121.835938h-171.839844c-6.371093 0-11.539062-5.164063-11.539062-11.539063s5.167969-11.542969 11.539062-11.542969h171.839844c6.375 0 11.539063 5.167969 11.539063 11.542969.003906 6.375-5.164063 11.539063-11.539063 11.539063zm0 0" fill="#ff8709" data-original="#FF8709" class="" style="fill:#00AF80" data-old_color="#ff8709"/><path d="m464.414062 412.257812h-181v-77.601562c0-3.335938 2.707032-6.039062 6.042969-6.039062h168.917969c3.335938 0 6.039062 2.703124 6.039062 6.039062zm0 0" fill="#eab765" data-original="#EAB765" class="" style="fill:#194C80" data-old_color="#eab765"/><path d="m458.375 328.617188h-30.25c3.335938 0 6.039062 2.703124 6.039062 6.039062v77.601562h30.25v-77.601562c0-3.335938-2.703124-6.039062-6.039062-6.039062zm0 0" fill="#d9ab5e" data-original="#D9AB5E" class="active-path" style="fill:#0E2A47" data-old_color="#d9ab5e"/><path d="m455.351562 496.863281h-398.703124c-27.144532 0-49.148438-22.003906-49.148438-49.148437 0-27.144532 22.003906-49.148438 49.148438-49.148438h398.703124c27.144532 0 49.148438 22.003906 49.148438 49.148438 0 27.144531-22.003906 49.148437-49.148438 49.148437zm0 0" fill="#8ebac5" data-original="#8EBAC5"/><path d="m455.351562 398.566406h-30c27.144532 0 49.148438 22.003906 49.148438 49.148438 0 27.144531-22.003906 49.148437-49.148438 49.148437h30c27.144532 0 49.148438-22.003906 49.148438-49.148437 0-27.144532-22.003906-49.148438-49.148438-49.148438zm0 0" fill="#7ca1b1" data-original="#7CA1B1" class=""/><path d="m56.648438 468.828125c-11.640626 0-21.113282-9.472656-21.113282-21.113281s9.472656-21.109375 21.113282-21.109375h398.703124c11.640626 0 21.113282 9.46875 21.113282 21.109375s-9.472656 21.113281-21.113282 21.113281zm0 0" fill="#384949" data-original="#384949"/><g fill="#deecf1"><path d="m476.464844 447.714844c0 11.660156-9.453125 21.113281-21.113282 21.113281-11.660156 0-21.109374-9.453125-21.109374-21.113281s9.449218-21.109375 21.109374-21.109375c11.660157 0 21.113282 9.449219 21.113282 21.109375zm0 0" data-original="#DEECF1" class=""/><path d="m77.757812 447.714844c0 11.660156-9.449218 21.113281-21.109374 21.113281-11.660157 0-21.113282-9.453125-21.113282-21.113281s9.453125-21.109375 21.113282-21.109375c11.660156 0 21.109374 9.449219 21.109374 21.109375zm0 0" data-original="#DEECF1" class=""/><path d="m203.355469 447.714844c0 11.660156-9.453125 21.113281-21.109375 21.113281-11.660156 0-21.113282-9.453125-21.113282-21.113281s9.453126-21.109375 21.113282-21.109375c11.65625 0 21.109375 9.449219 21.109375 21.109375zm0 0" data-original="#DEECF1" class=""/><path d="m350.867188 447.714844c0 11.660156-9.453126 21.113281-21.113282 21.113281-11.65625 0-21.109375-9.453125-21.109375-21.113281s9.453125-21.109375 21.109375-21.109375c11.660156 0 21.113282 9.449219 21.113282 21.109375zm0 0" data-original="#DEECF1" class=""/></g><path d="m471.914062 393.539062v-14.359374c0-4.140626-3.355468-7.5-7.5-7.5-4.140624 0-7.5 3.359374-7.5 7.5v11.910156c-.519531-.015625-1.039062-.023438-1.5625-.023438h-164.4375v-54.949218h166v12.894531c0 4.140625 3.359376 7.5 7.5 7.5 4.144532 0 7.5-3.359375 7.5-7.5v-14.355469c0-7.464844-6.070312-13.539062-13.539062-13.539062h-65.953125v-14.824219c0-31.589844-18.496094-52.390625-56.542969-63.589844-.226562-.066406-.453125-.125-.6875-.167969l-74.257812-14.441406v-15.664062c2.589844-1.789063 5.117187-3.742188 7.582031-5.863282 13.324219-11.472656 21.828125-27.902344 23.9375-45.878906 9.984375-1.128906 17.769531-9.621094 17.769531-19.902344v-13.234375c6.488282-3.039062 10.988282-9.628906 10.988282-17.253906 0-9.085937-6.398438-16.707031-14.925782-18.59375v-4.757813c0-47.667968-38.78125-86.445312-86.445312-86.445312h-7.175782c-27.902343 0-54.234374 13.582031-70.445312 36.332031-2.402344 3.375-1.617188 8.058594 1.757812 10.460938 3.375 2.40625 8.054688 1.617187 10.457032-1.757813 5.914062-8.300781 13.460937-15.125 22.023437-20.15625v14.195313c0 4.144531 3.359375 7.5 7.5 7.5 4.144531 0 7.5-3.355469 7.5-7.5v-20.839844c5.71875-1.785156 11.683594-2.859375 17.765625-3.152344v41.90625c0 4.140625 3.355469 7.5 7.5 7.5 4.140625 0 7.5-3.359375 7.5-7.5v-41.855469c5.820313.351563 11.457032 1.40625 16.824219 3.078126v20.863281c0 4.144531 3.355469 7.5 7.5 7.5 4.140625 0 7.5-3.355469 7.5-7.5v-14.207031c21.070313 12.4375 35.238281 35.382812 35.238281 61.574218v4.3125h-150.066406v-4.3125c0-5.644531.660156-11.257812 1.960938-16.691406.960937-4.027344-1.523438-8.074219-5.550782-9.039062-4.035156-.96875-8.074218 1.523437-9.039062 5.550781-1.574219 6.574219-2.371094 13.363281-2.371094 20.179687v4.761719c-8.527344 1.886719-14.925781 9.507813-14.925781 18.59375 0 7.621094 4.503906 14.214844 10.988281 17.253906v13.234375c0 10.277344 7.785156 18.773438 17.769531 19.898438 2.109375 17.980468 10.617188 34.410156 23.9375 45.882812 2.464844 2.121094 4.992188 4.074219 7.582031 5.859375v15.667969l-74.257812 14.4375c-.234375.046875-.460938.101562-.6875.167969-38.046875 11.203125-56.542969 32.003906-56.542969 63.59375v87.242187c-23.179687 7.101563-40.082031 28.703125-40.082031 54.179688 0 31.234375 25.410156 56.648437 56.648438 56.648437h398.703124c31.234376 0 56.648438-25.414062 56.648438-56.648437 0-25.476563-16.902344-47.078125-40.085938-54.175782zm-135.054687-134.804687c27.996094 9.429687 40.5625 24.253906 40.5625 47.558594v14.824219h-40.5625zm-210.566406-148.4375c0-2.230469 1.8125-4.042969 4.039062-4.042969h171.839844c2.230469 0 4.042969 1.816406 4.042969 4.042969s-1.816406 4.039063-4.042969 4.039063h-171.839844c-2.226562 0-4.039062-1.808594-4.039062-4.039063zm28.253906 42.855469c-.089844-4.078125-3.417969-7.339844-7.5-7.339844h-4.738281c-2.769532 0-5.027344-2.253906-5.027344-5.027344v-11.445312h157.941406v11.445312c0 2.773438-2.253906 5.027344-5.027344 5.027344h-4.738281c-4.078125 0-7.410156 3.261719-7.496093 7.339844-.355469 16.503906-7.363282 31.828125-19.230469 42.046875-12.363281 10.644531-26.652344 16.140625-42.476563 16.335937-15.824218-.195312-30.113281-5.691406-42.476562-16.335937-11.867188-10.21875-18.878906-25.542969-19.230469-42.046875zm91.386719 67.457031v13.667969c0 16.363281-13.316406 29.679687-29.679688 29.679687-16.367187 0-29.683594-13.3125-29.683594-29.679687v-13.667969c9.261719 3.820313 19.152344 5.808594 29.597657 5.925781h.167969c10.445312-.117187 20.335937-2.101562 29.597656-5.925781zm-98.902344 27.539063 25.4375-4.949219c4.144531 20.378906 22.203125 35.757812 43.785156 35.757812 21.582032 0 39.636719-15.378906 43.785156-35.757812l25.433594 4.949219v42.347656c0 4.101562-3.339844 7.4375-7.441406 7.4375h-123.554688c-4.105468 0-7.441406-3.335938-7.441406-7.4375v-42.347656zm-36.386719 7.074218 21.390625-4.160156v39.433594c0 12.375 10.066406 22.4375 22.441406 22.4375h123.554688c12.371094 0 22.441406-10.0625 22.441406-22.4375v-39.433594l21.386719 4.160156v65.894532h-32.402344c-7.46875 0-13.542969 6.074218-13.542969 13.539062v56.410156h-165.269531zm-55.558593 51.070313c0-23.304688 12.5625-38.128907 40.558593-47.558594v62.382813h-40.558593zm0 29.824219h40.558593v54.949218h-38.996093c-.523438 0-1.046876.007813-1.5625.023438zm400.265624 153.246093h-398.703124c-22.964844 0-41.648438-18.683593-41.648438-41.648437s18.683594-41.648438 41.648438-41.648438h398.703124c22.964844 0 41.648438 18.683594 41.648438 41.648438s-18.683594 41.648437-41.648438 41.648437zm0 0" data-original="#000000" class="" style="fill:#000000"/><path d="m455.351562 419.105469h-398.703124c-15.777344 0-28.613282 12.835937-28.613282 28.609375 0 15.777344 12.835938 28.609375 28.613282 28.609375h398.703124c15.777344 0 28.609376-12.832031 28.609376-28.609375.003906-15.773438-12.832032-28.609375-28.609376-28.609375zm-398.703124 42.222656c-6.742188 0-12.355469-4.929687-13.425782-11.375-.011718-.054687-.019531-.109375-.027344-.167969-.019531-.109375-.035156-.222656-.046874-.335937-.007813-.058594-.015626-.113281-.023438-.171875-.023438-.226563-.046875-.457032-.058594-.6875-.019531-.289063-.03125-.582032-.03125-.875 0-.292969.011719-.582032.03125-.871094.011719-.230469.035156-.460938.058594-.6875.007812-.058594.015625-.113281.023438-.171875.011718-.113281.027343-.226563.046874-.335937.007813-.058594.015626-.113282.027344-.171876 1.070313-6.441406 6.683594-11.371093 13.425782-11.371093 7.503906 0 13.609374 6.105469 13.609374 13.609375s-6.105468 13.609375-13.609374 13.613281zm100.4375 0h-75.277344c2.199218-4.050781 3.449218-8.6875 3.449218-13.613281 0-4.921875-1.25-9.558594-3.449218-13.609375h75.277344c-2.199219 4.050781-3.449219 8.6875-3.449219 13.609375s1.25 9.5625 3.449219 13.613281zm25.160156 0c-7.507813 0-13.609375-6.105469-13.609375-13.613281 0-7.503906 6.101562-13.609375 13.609375-13.609375 7.503906 0 13.609375 6.105469 13.609375 13.609375 0 7.507812-6.105469 13.613281-13.609375 13.613281zm122.347656 0h-97.1875c2.199219-4.050781 3.449219-8.6875 3.449219-13.613281 0-4.921875-1.25-9.558594-3.449219-13.609375h97.1875c-2.199219 4.050781-3.449219 8.6875-3.449219 13.609375s1.25 9.5625 3.449219 13.613281zm25.160156 0c-7.503906 0-13.609375-6.105469-13.609375-13.613281 0-7.503906 6.105469-13.609375 13.609375-13.609375 7.507813 0 13.609375 6.105469 13.609375 13.609375 0 7.507812-6.101562 13.613281-13.609375 13.613281zm25.160156 0c2.199219-4.050781 3.449219-8.6875 3.449219-13.613281 0-4.921875-1.25-9.558594-3.449219-13.609375h75.277344c-2.199218 4.050781-3.449218 8.6875-3.449218 13.609375 0 4.925781 1.25 9.5625 3.449218 13.613281zm100.4375 0c-7.503906 0-13.609374-6.109375-13.609374-13.613281s6.105468-13.609375 13.609374-13.609375c7.503907 0 13.613282 6.105469 13.613282 13.609375 0 7.507812-6.109375 13.613281-13.613282 13.613281zm0 0" data-original="#000000" class="" style="fill:#000000"/></g> </svg>
